<svg xmlns="http://www.w3.org/2000/svg" xmlns:xlink="http://www.w3.org/1999/xlink" contentStyleType="text/css" data-diagram-type="ACTIVITY" height="357px" preserveAspectRatio="none" style="width:419px;height:357px;background:#FFFFFF;" version="1.1" viewBox="0 0 419 357" width="419px" zoomAndPan="magnify"><defs/><g><rect fill="none" height="20.9531" style="stroke:none;stroke-width:1;" width="386.1875" x="15" y="12.7451"/><path d="M20,38.6982 L20,63.8311 A0,0 0 0 0 20,63.8311 L159.6758,63.8311 A0,0 0 0 0 159.6758,63.8311 L159.6758,56.6982 L179.6758,51.2646 L159.6758,48.6982 L159.6758,48.6982 L149.6758,38.6982 L20,38.6982 A0,0 0 0 0 20,38.6982" fill="#FEFFDD" style="stroke:#181818;stroke-width:0.5;"/><path d="M149.6758,38.6982 L149.6758,48.6982 L159.6758,48.6982 L149.6758,38.6982" fill="#FEFFDD" style="stroke:#181818;stroke-width:0.5;"/><text fill="#000000" font-family="sans-serif" font-size="13" lengthAdjust="spacing" textLength="118.6758" x="26" y="55.7651">User is in Explorer</text><ellipse cx="189.6758" cy="51.2646" fill="#222222" rx="10" ry="10" style="stroke:#222222;stroke-width:1;"/><rect fill="#F1F1F1" height="33.9688" rx="12.5" ry="12.5" style="stroke:#181818;stroke-width:0.5;" width="79.8594" x="149.7461" y="83.8311"/><text fill="#000000" font-family="sans-serif" font-size="12" lengthAdjust="spacing" textLength="59.8594" x="159.7461" y="104.9697">click login</text><ellipse cx="189.6758" cy="334.7061" fill="none" rx="11" ry="11" style="stroke:#222222;stroke-width:1;"/><ellipse cx="189.6758" cy="334.7061" fill="#222222" rx="6" ry="6" style="stroke:#222222;stroke-width:1;"/><line style="stroke:#000000;stroke-width:1.5;" x1="15" x2="15" y1="12.7451" y2="345.7061"/><polygon fill="#F1F1F1" points="294.7998,137.7998,345.0249,137.7998,357.0249,149.7998,345.0249,161.7998,294.7998,161.7998,282.7998,149.7998,294.7998,137.7998" style="stroke:#181818;stroke-width:0.5;"/><text fill="#000000" font-family="sans-serif" font-size="11" lengthAdjust="spacing" textLength="50.2251" x="294.7998" y="153.6079">new user</text><text fill="#000000" font-family="sans-serif" font-size="11" lengthAdjust="spacing" textLength="19.0083" x="263.7915" y="147.2056">yes</text><text fill="#000000" font-family="sans-serif" font-size="11" lengthAdjust="spacing" textLength="13.7017" x="357.0249" y="147.2056">no</text><rect fill="#F1F1F1" height="33.9688" rx="12.5" ry="12.5" style="stroke:#181818;stroke-width:0.5;" width="66.3887" x="239.6055" y="171.7998"/><text fill="#000000" font-family="sans-serif" font-size="12" lengthAdjust="spacing" textLength="46.3887" x="249.6055" y="192.9385">Sign Up</text><rect fill="#F1F1F1" height="33.9688" rx="12.5" ry="12.5" style="stroke:#181818;stroke-width:0.5;" width="56.6035" x="338.7231" y="171.7998"/><text fill="#000000" font-family="sans-serif" font-size="12" lengthAdjust="spacing" textLength="36.6035" x="348.7231" y="192.9385">Log In</text><polygon fill="#F1F1F1" points="319.9124,211.7686,331.9124,223.7686,319.9124,235.7686,307.9124,223.7686,319.9124,211.7686" style="stroke:#181818;stroke-width:0.5;"/><rect fill="#F1F1F1" height="47.9375" rx="12.5" ry="12.5" style="stroke:#181818;stroke-width:0.5;" width="98.6387" x="270.593" y="255.7686"/><text fill="#000000" font-family="sans-serif" font-size="12" lengthAdjust="spacing" textLength="62.748" x="280.593" y="276.9072">redirect to</text><text fill="#000000" font-family="sans-serif" font-size="12" lengthAdjust="spacing" textLength="78.6387" x="280.593" y="290.876">original page</text><line style="stroke:#000000;stroke-width:1.5;" x1="233.6055" x2="233.6055" y1="12.7451" y2="345.7061"/><line style="stroke:#000000;stroke-width:1.5;" x1="399.3267" x2="399.3267" y1="12.7451" y2="345.7061"/><line style="stroke:#181818;stroke-width:1;" x1="189.6758" x2="189.6758" y1="61.2646" y2="83.8311"/><polygon fill="#181818" points="185.6758,73.8311,189.6758,83.8311,193.6758,73.8311,189.6758,77.8311" style="stroke:#181818;stroke-width:1;"/><line style="stroke:#181818;stroke-width:1;" x1="282.7998" x2="272.7998" y1="149.7998" y2="149.7998"/><line style="stroke:#181818;stroke-width:1;" x1="272.7998" x2="272.7998" y1="149.7998" y2="171.7998"/><polygon fill="#181818" points="268.7998,161.7998,272.7998,171.7998,276.7998,161.7998,272.7998,165.7998" style="stroke:#181818;stroke-width:1;"/><line style="stroke:#181818;stroke-width:1;" x1="357.0249" x2="367.0249" y1="149.7998" y2="149.7998"/><line style="stroke:#181818;stroke-width:1;" x1="367.0249" x2="367.0249" y1="149.7998" y2="171.7998"/><polygon fill="#181818" points="363.0249,161.7998,367.0249,171.7998,371.0249,161.7998,367.0249,165.7998" style="stroke:#181818;stroke-width:1;"/><line style="stroke:#181818;stroke-width:1;" x1="272.7998" x2="272.7998" y1="205.7686" y2="223.7686"/><line style="stroke:#181818;stroke-width:1;" x1="272.7998" x2="307.9124" y1="223.7686" y2="223.7686"/><polygon fill="#181818" points="297.9124,219.7686,307.9124,223.7686,297.9124,227.7686,301.9124,223.7686" style="stroke:#181818;stroke-width:1;"/><line style="stroke:#181818;stroke-width:1;" x1="367.0249" x2="367.0249" y1="205.7686" y2="223.7686"/><line style="stroke:#181818;stroke-width:1;" x1="367.0249" x2="331.9124" y1="223.7686" y2="223.7686"/><polygon fill="#181818" points="341.9124,219.7686,331.9124,223.7686,341.9124,227.7686,337.9124,223.7686" style="stroke:#181818;stroke-width:1;"/><line style="stroke:#181818;stroke-width:1;" x1="319.9124" x2="319.9124" y1="235.7686" y2="255.7686"/><polygon fill="#181818" points="315.9124,245.7686,319.9124,255.7686,323.9124,245.7686,319.9124,249.7686" style="stroke:#181818;stroke-width:1;"/><line style="stroke:#181818;stroke-width:1;" x1="189.6758" x2="189.6758" y1="117.7998" y2="122.7998"/><line style="stroke:#181818;stroke-width:1;" x1="189.6758" x2="319.9124" y1="122.7998" y2="122.7998"/><line style="stroke:#181818;stroke-width:1;" x1="319.9124" x2="319.9124" y1="122.7998" y2="137.7998"/><polygon fill="#181818" points="315.9124,127.7998,319.9124,137.7998,323.9124,127.7998,319.9124,131.7998" style="stroke:#181818;stroke-width:1;"/><line style="stroke:#181818;stroke-width:1;" x1="319.9124" x2="319.9124" y1="303.7061" y2="308.7061"/><line style="stroke:#181818;stroke-width:1;" x1="319.9124" x2="189.6758" y1="308.7061" y2="308.7061"/><line style="stroke:#181818;stroke-width:1;" x1="189.6758" x2="189.6758" y1="308.7061" y2="323.7061"/><polygon fill="#181818" points="185.6758,313.7061,189.6758,323.7061,193.6758,313.7061,189.6758,317.7061" style="stroke:#181818;stroke-width:1;"/><text fill="#000000" font-family="sans-serif" font-size="18" lengthAdjust="spacing" textLength="47.8828" x="103.2222" y="29.4531">Gen3</text><text fill="#000000" font-family="sans-serif" font-size="18" lengthAdjust="spacing" textLength="53.6396" x="292.5071" y="29.4531">Auth0</text><!--SRC=[BOwn2i9044Jx_OefaqwmIoeB4S5Eqjc4P7DPF7QFkmigtCTx1fiTs1dUJBcm7Wj-br8UOoPIoqp0a3X24aHnVWTlaIEnphjBtUHbUiAR4-sfdBQy7Wfs8LdGAB-mLK2BlBAY-N1gAnFexk8KG-Y9VU8QjF__PWxNogeLib0NUPR8KqQsXrgKsZDwXD5nJrJsqNMlXIy0]--></g></svg>